<svg xmlns="http://www.w3.org/2000/svg" viewBox="0 0 1024 1024">
  <!-- Zoom al MÁXIMO (1.8) y centrado perfecto -->
  <g transform="translate(-487, -280) scale(1.8)">
    <g transform="translate(0,1024) scale(0.1,-0.1)" fill="#000000" stroke="none">
      <path d="M5106 8473 c-19 -90 -97 -733 -201 -1638 -25 -220 -54 -467 -64 -550 -10 -82 -17 -153 -15 -157 2 -3 24 0 48 7 128 39 319 39 481 1 33 -8 61 -13 64 -11 2 2 -2 41 -8 87 -14 108 -44 359 -136 1148 -89 758 -134 1120 -141 1131 -10 17 -22 9 -28 -18z"/>
      <path d="M4555 7184 c-640 -187 -1141 -685 -1331 -1325 -19 -66 -33 -123 -31 -126 3 -2 74 8 157 24 l152 28 37 95 c188 482 561 851 1016 1005 61 21 111 38 111 39 3 2 34 263 34 281 0 20 -7 19 -145 -21z"/>
      <path d="M5541 7203 c0 -10 8 -76 17 -148 l17 -130 105 -35 c129 -44 182 -68 285 -127 290 -167 537 -440 689 -764 l59 -126 150 -7 c82 -4 152 -5 155 -2 16 16 -110 300 -192 435 -223 367 -551 650 -943 815 -55 23 -317 106 -335 106 -5 0 -8 -8 -7 -17z"/>
      <path d="M4942 5966 c-30 -7 -92 -33 -139 -56 -148 -73 -261 -205 -319 -375 -24 -70 -28 -95 -27 -200 0 -103 4 -132 26 -201 70 -213 248 -379 463 -434 88 -23 255 -27 332 -9 26 6 89 31 141 56 132 63 229 159 295 293 73 150 91 269 60 417 -45 221 -205 407 -419 489 -62 24 -86 27 -215 30 -99 2 -162 -1 -198 -10z m303 -335 c28 -12 71 -44 97 -72 148 -158 103 -406 -90 -501 -65 -32 -196 -33 -262 -2 -61 29 -118 88 -149 154 -36 75 -36 190 -2 268 30 67 115 146 179 167 63 20 164 14 227 -14z"/>
      <path d="M7733 5925 c-81 -22 -132 -52 -193 -114 -60 -61 -92 -117 -113 -201 l-14 -55 -89 -16 c-49 -9 -366 -63 -704 -119 -338 -57 -625 -107 -637 -111 -18 -7 -23 -16 -23 -43 0 -19 -9 -78 -20 -133 -24 -119 -24 -112 -2 -107 9 2 193 40 407 84 594 122 766 158 938 196 87 20 160 34 161 32 96 -173 241 -256 427 -246 69 4 101 12 151 35 91 43 161 110 203 196 62 127 64 244 4 365 -37 76 -123 168 -187 201 -96 49 -210 62 -309 36z m216 -253 c102 -82 118 -198 38 -288 -41 -47 -77 -64 -135 -64 -60 0 -108 19 -144 57 -128 134 -26 346 156 328 35 -3 61 -13 85 -33z"/>
      <path d="M3895 5599 c-203 -32 -561 -88 -795 -124 -731 -113 -721 -111 -685 -125 21 -8 119 -24 1130 -180 319 -49 618 -96 665 -104 46 -8 86 -13 88 -11 3 2 -4 37 -14 77 -27 104 -25 342 3 451 l20 77 -21 -1 c-11 -1 -187 -28 -391 -60z"/>
      <path d="M3196 4973 c-8 -8 45 -208 80 -300 218 -586 731 -1038 1359 -1197 32 -8 61 -13 64 -11 4 5 -14 197 -26 276 l-5 36 -117 38 c-239 77 -442 204 -631 394 -201 201 -338 438 -416 719 -2 6 -18 12 -36 12 -18 1 -86 9 -151 18 -64 10 -119 17 -121 15z"/>
      <path d="M4810 4534 c0 -26 95 -783 165 -1314 21 -163 101 -777 122 -942 3 -27 10 -48 15 -48 24 0 25 6 218 1545 50 396 93 735 96 754 6 29 4 33 -10 28 -138 -53 -456 -54 -588 -2 -15 6 -18 2 -18 -21z"/>
    </g>
  </g>
</svg>